<svg xmlns="http://www.w3.org/2000/svg" style="display: none;">
  <defs>
    <symbol id="send" width="24" height="24" viewBox="0 0 24 24">
      <path d="M2.01 21 23 12 2.01 3 2 10l15 2-15 2 .01 7Z"/>
    </symbol>
    <symbol id="arrow-right" width="24" height="24" viewBox="0 0 24 24">
      <path d="m14.2 4.8 6.5 6.5.71.7-.7.7-6.5 6.5-1.42-1.4 4.8-4.8H3v-2h14.59l-4.8-4.8 1.42-1.4Z"/>
    </symbol>
    <symbol id="chevron-right" width="24" height="24" viewBox="0 0 24 24">
      <path d="m13.59 12-5.8-5.8 1.42-1.4 6.5 6.5.7.7-.7.7-6.5 6.5-1.42-1.4 5.8-5.8Z"/>
    </symbol>
    <symbol id="github" width="24" height="24" viewBox="0 0 24 24">
      <path d="M12 2a10 10 0 0 0-3.16 19.5c.5.08.66-.23.66-.5v-1.69c-2.77.6-3.36-1.34-3.36-1.34-.46-1.16-1.11-1.47-1.11-1.47-.91-.62.07-.6.07-.6 1 .07 1.53 1.03 1.53 1.03.87 1.52 2.34 1.07 2.91.83.09-.65.35-1.09.63-1.34-2.22-.25-4.55-1.11-4.55-4.92 0-1.11.38-2 1.03-2.71-.1-.25-.45-1.29.1-2.64 0 0 .84-.27 2.75 1.02a9.42 9.42 0 0 1 5 0c1.91-1.29 2.75-1.02 2.75-1.02.55 1.35.2 2.39.1 2.64.65.71 1.03 1.6 1.03 2.71 0 3.82-2.34 4.66-4.57 4.91.36.31.69.92.69 1.85V21c0 .27.16.59.67.5a10.03 10.03 0 0 0 3.9-16.57A10 10 0 0 0 12 2Z"/>
    </symbol>
    <symbol id="menu" width="24" height="24" viewBox="0 0 24 24">
      <path d="M22 6H2V4h20v2ZM2 13h16v-2H2v2Zm0 7h20v-2H2v2Z"/>
    </symbol>
    <symbol id="figma" width="24" height="24" viewBox="0 0 24 24">
      <path fill-rule="evenodd" d="M15 10a2 2 0 1 0 0 4 2 2 0 0 0 0-4Zm-2 5.46A4 4 0 0 0 17.65 9a4.01 4.01 0 0 0 .18-5.83A4 4 0 0 0 15 2H9a4 4 0 0 0-2.65 7 4.01 4.01 0 0 0 0 6A3.98 3.98 0 0 0 5 18a4 4 0 1 0 8 0v-2.54ZM11 16H9a2 2 0 1 0 2 2v-2ZM9 8h2V4H9a2 2 0 1 0 0 4Zm0 2a2 2 0 1 0 0 4h2v-4H9Zm4-2V4h2a2 2 0 0 1 0 4h-2Z"/>
    </symbol>
    <symbol id="copy" width="24" height="24" viewBox="0 0 24 24">
      <path d="M3 2h12v4H7v10H3V2Zm6 20V8h12v11l-3 3H9Z"/>
    </symbol>
    <symbol id="error" width="24" height="24" viewBox="0 0 24 24">
      <path d="M19.7 19H4.3L12 5.07 19.7 19ZM11.12 2.52l-9.39 17L2.61 21h18.78l.88-1.48-9.4-17h-1.75ZM11 14v-4h2v4h-2Zm0 3v-2h2v2h-2Z"/>
    </symbol>
    <symbol id="arrow-left" width="24" height="24" viewBox="0 0 24 24">
      <path d="m9.8 19.2-6.5-6.5-.71-.7.7-.7 6.5-6.5 1.42 1.4L6.4 11H21v2H6.41l4.8 4.8-1.42 1.4Z"/>
    </symbol>
    <symbol id="check" width="24" height="24" viewBox="0 0 24 24">
      <path d="m20.2 7.2-10 10-.7.71-.7-.7-5-5 1.4-1.42 4.3 4.3 9.3-9.3 1.4 1.42Z"/>
    </symbol>
    <symbol id="link" width="24" height="24" viewBox="0 0 24 24">
      <path d="M9 4 8 5v2h2V6h10v7H10v-2H8v3l1 1h12l1-1V5l-1-1H9Zm2 4H3L2 9v9l1 1h12l1-1v-2h-2v1H4v-7h10v2h2V9l-1-1h-4Z"/>
    </symbol>
    <symbol id="close" width="24" height="24" viewBox="0 0 24 24">
      <path d="M19 6.41 17.59 5 12 10.59 6.41 5 5 6.41 10.59 12 5 17.59 6.41 19 12 13.41 17.59 19 19 17.59 13.41 12 19 6.41Z"/>
    </symbol>
    <symbol id="pause" width="24" height="24" viewBox="0 0 24 24">
      <path d="M6 19h4V5H6v14Zm8-14v14h4V5h-4Z"/>
    </symbol>
    <symbol id="play" width="24" height="24" viewBox="0 0 24 24">
      <path d="M8 5v14l11-7L8 5Z"/>
    </symbol>
    <symbol id="bluesky" width="24" height="24" viewBox="0 0 24 24">
      <path d="M6.34 3.78C8.63 5.51 11.09 9.01 12 10.9v4.96c0-.1-.04.02-.13.27-.47 1.4-2.32 6.83-6.54 2.49-2.22-2.29-1.19-4.58 2.86-5.27-2.32.4-4.92-.26-5.63-2.82C2.35 9.8 2 5.25 2 4.64c0-3.07 2.68-2.1 4.34-.86Zm11.32 0C15.37 5.51 12.91 9.01 12 10.9v4.96c0-.1.04.02.13.27.47 1.4 2.32 6.83 6.54 2.49 2.22-2.29 1.19-4.58-2.86-5.27 2.32.4 4.92-.26 5.63-2.82.21-.73.56-5.27.56-5.88 0-3.07-2.68-2.1-4.34-.86Z"/>
    </symbol>
    <symbol id="linkedin" width="24" height="24" viewBox="0 0 24 24" >
<path d="M20.447 20.452h-3.554v-5.569c0-1.328-.027-3.037-1.852-3.037-1.853 0-2.136 1.445-2.136 2.939v5.667H9.351V9h3.414v1.561h.046c.477-.9 1.637-1.85 3.37-1.85 3.601 0 4.267 2.37 4.267 5.455v6.286zM5.337 7.433c-1.144 0-2.063-.926-2.063-2.065 0-1.138.92-2.063 2.063-2.063 1.14 0 2.064.925 2.064 2.063 0 1.139-.925 2.065-2.064 2.065zm1.782 13.019H3.555V9h3.564v11.452zM22.225 0H1.771C.792 0 0 .774 0 1.729v20.542C0 23.227.792 24 1.771 24h20.451C23.2 24 24 23.227 24 22.271V1.729C24 .774 23.2 0 22.222 0h.003z"/>    </symbol>
    <symbol id="itch.io" width="24" height="24" viewBox="0 0 24 24" >
      <path d="M3.13 1.338C2.08 1.96.02 4.328 0 4.95v1.03c0 1.303 1.22 2.45 2.325 2.45 1.33 0 2.436-1.102 2.436-2.41 0 1.308 1.07 2.41 2.4 2.41 1.328 0 2.362-1.102 2.362-2.41 0 1.308 1.137 2.41 2.466 2.41h.024c1.33 0 2.466-1.102 2.466-2.41 0 1.308 1.034 2.41 2.363 2.41 1.33 0 2.4-1.102 2.4-2.41 0 1.308 1.106 2.41 2.435 2.41C22.78 8.43 24 7.282 24 5.98V4.95c-.02-.62-2.082-2.99-3.13-3.612-3.253-.114-5.508-.134-8.87-.133-3.362 0-7.945.053-8.87.133zm6.376 6.477a2.74 2.74 0 0 1-.468.602c-.5.49-1.19.795-1.947.795a2.786 2.786 0 0 1-1.95-.795 2.618 2.618 0 0 1-.446-.59 2.749 2.749 0 0 1-.486.59 2.788 2.788 0 0 1-1.95.795.826.826 0 0 1-.264-.052 40.362 40.362 0 0 0-.168 2.95v.005l-.006 1.167c.02 2.334-.23 7.564 1.03 8.85 1.952.454 5.545.662 9.15.663 3.605 0 7.198-.21 9.15-.664 1.26-1.284 1.01-6.514 1.03-8.848l-.006-1.167v-.004a39.749 39.749 0 0 0-.168-2.95.854.854 0 0 1-.263.052 2.788 2.788 0 0 1-1.95-.795 2.691 2.691 0 0 1-.486-.59c-.127.22-.265.412-.447.59a2.786 2.786 0 0 1-1.95.794c-.76 0-1.446-.303-1.948-.793a2.74 2.74 0 0 1-.468-.602 2.738 2.738 0 0 1-.463.602 2.787 2.787 0 0 1-1.95.794h-.16a2.787 2.787 0 0 1-1.95-.793 2.738 2.738 0 0 1-.464-.602zm-2.004 2.59v.002c.795.002 1.5 0 2.373.953A20.263 20.263 0 0 1 12 11.253c.72 0 1.438.035 2.125.107.873-.953 1.578-.95 2.372-.953.376 0 1.876 0 2.92 2.934l1.123 4.028c.832 2.995-.266 3.068-1.636 3.07-2.03-.075-3.156-1.55-3.156-3.025-1.124.184-2.436.276-3.748.277-1.312 0-2.624-.093-3.748-.277 0 1.475-1.125 2.95-3.156 3.026-1.37-.004-2.468-.077-1.636-3.072l1.122-4.027c1.045-2.934 2.545-2.934 2.92-2.934zM12 12.714c-.002.002-2.14 1.964-2.523 2.662l1.4-.056v1.22c0 .056.56.033 1.123.007.562.026 1.124.05 1.124-.008v-1.22l1.4.055C14.138 14.677 12 12.713 12 12.713z"/>
    </symbol>
    <symbol id="upwork" width="24" height="24" viewBox="0 0 24 24">
      <path d="M18.561 13.158c-1.102 0-2.135-.467-3.074-1.227l.228-1.076.008-.042c.207-1.143.849-3.06 2.839-3.06 1.492 0 2.703 1.212 2.703 2.703-.001 1.489-1.212 2.702-2.704 2.702zm0-8.14c-2.539 0-4.51 1.649-5.31 4.366-1.22-1.834-2.148-4.036-2.687-5.892H7.828v7.112c-.002 1.406-1.141 2.546-2.547 2.548-1.405-.002-2.543-1.143-2.545-2.548V3.492H0v7.112c0 2.914 2.37 5.303 5.281 5.303 2.913 0 5.283-2.389 5.283-5.303v-1.19c.529 1.107 1.182 2.229 1.974 3.221l-1.673 7.873h2.797l1.213-5.71c1.063.679 2.285 1.109 3.686 1.109 3 0 5.439-2.452 5.439-5.45 0-3-2.439-5.439-5.439-5.439z"/>
    </symbol>
    <symbol id="download" width="24" height="24" viewBox="0 0 24 24">
      <path d="M19 9h-4V3H9v6H5l7 7 7-7zM5 18v2h14v-2H5z"/>
    </symbol>
  </defs>
</svg>
